<svg width="533" height="589" viewBox="0 0 533 589" fill="none" xmlns="http://www.w3.org/2000/svg">
<path d="M198 0H171.068L0 589H26.932L198 0Z" fill="#2E8B57"/>
<path d="M226 0H199.068L28 589H54.932L226 0Z" fill="#ECF0F1"/>
<path d="M254 0H227.068L56 589H82.932L254 0Z" fill="#2E8B57"/>
<path d="M333 -1H306.068L135 588H161.932L333 -1Z" fill="#F1C40F" fill-opacity="0.86"/>
<path d="M362 -1H335.068L164 588H190.932L362 -1Z" fill="#2E8B57"/>
<path d="M392 -1H365.068L194 588H220.932L392 -1Z" fill="#E03939"/>
<path d="M472 0H445.068L274 589H300.932L472 0Z" fill="#3F3D56"/>
<path d="M503 0H476.068L305 589H331.932L503 0Z" fill="#ECF0F1"/>
<path d="M533 0H506.068L335 589H361.932L533 0Z" fill="#E03939"/>
</svg>
