<svg width="701" height="440" viewBox="0 0 701 440" fill="none" xmlns="http://www.w3.org/2000/svg">
<path d="M650.911 287.943C647.407 297.099 645.776 306.864 646.113 316.661C646.451 326.458 648.751 336.088 652.877 344.98C653.377 346.047 653.914 347.127 654.462 348.206C660.991 360.999 670.095 374.298 665.169 387.446C661.341 397.695 650.333 403.085 640.162 407.106C600.751 422.702 559.358 432.725 517.178 436.887C486.07 439.956 454.739 439.805 423.474 439.648C355.863 439.317 288.179 438.985 220.778 433.62C189.966 431.208 159.045 427.669 129.402 418.922C88.7045 406.874 51.461 385.307 20.7535 356.007C19.6563 354.964 18.5772 353.903 17.5041 352.824C11.0413 346.307 5.14531 339.09 2.16715 330.463C-3.74093 313.185 3.34274 294.201 12.4521 278.37C21.5614 262.538 32.9917 247.437 36.7114 229.538C42.2035 203.186 29.9834 176.853 20.5907 151.629C11.1981 126.405 5.02474 96.1233 20.5606 74.1428C28.1386 63.4238 39.8523 56.4245 51.6383 50.631C86.4215 33.5518 124.512 24.2668 163.253 23.4236C185.83 22.9534 209.209 25.2322 230.316 17.2021C242.198 12.6685 252.881 5.00005 265.24 1.97366C286.129 -3.12659 307.754 5.88626 326.491 16.4424C337.27 22.5193 347.772 29.1629 359.046 34.3596C367.239 38.1396 376.662 42.3717 385.379 44.7169C393.922 47.0138 402.723 42.4079 410.223 38.6279C426.501 30.4169 441.801 18.1787 460.526 16.2495C484.237 13.8381 507.725 29.1328 531.062 24.2315C541.009 22.1395 549.841 16.5208 559.523 13.4281C584.843 5.32559 612.232 15.2367 636.171 26.8419C651.008 34.0281 666.086 42.42 675.358 56.0628C682.459 66.5346 685.474 79.1707 688.325 91.4933C699.177 138.39 709.082 190.267 686.071 232.564C675.569 251.813 658.857 267.518 650.911 287.943Z" fill="#10316B"/>
<path d="M695.59 207.804C693.39 216.23 690.182 224.359 686.034 232.015C675.557 251.265 658.857 266.982 650.911 287.413C649.735 290.445 648.772 293.555 648.03 296.721C647.716 298.023 647.445 299.333 647.216 300.652C644.554 315.488 646.531 330.784 652.877 344.456C653.377 345.523 653.914 346.602 654.462 347.681C660.991 360.474 670.095 373.773 665.169 386.922C664.675 388.249 664.049 389.523 663.3 390.726C658.477 398.563 648.994 403.091 640.162 406.581C600.751 422.177 559.358 432.201 517.178 436.363C509.045 437.165 500.9 437.749 492.75 438.171C469.708 439.377 446.582 439.245 423.492 439.13C355.881 438.798 288.197 438.467 220.797 433.101C189.984 430.69 159.063 427.151 129.42 418.404C88.7178 406.363 51.4681 384.803 20.7535 355.506C19.6563 354.464 18.5772 353.402 17.5041 352.323C11.0414 345.8 5.14533 338.584 2.16717 329.957C-1.90821 318.02 0.201823 305.276 4.90418 293.321C7.03554 287.989 9.55838 282.823 12.4521 277.863C13.2358 276.507 14.0376 275.144 14.8635 273.8C23.4845 259.416 33.3233 245.399 36.7235 229.049C40.9435 208.883 34.7521 188.724 27.4212 169.064C26.7762 167.334 26.119 165.604 25.4619 163.885C23.8342 159.611 22.1823 155.355 20.6088 151.135C11.2102 125.917 5.04284 95.6349 20.5787 73.6544C21.0067 73.0516 21.4589 72.4487 21.9231 71.8459C29.1575 62.5497 39.5991 56.1713 50.2156 50.848L51.6564 50.1246C86.4397 33.0454 124.53 23.7604 163.271 22.9172C185.848 22.447 209.228 24.7258 230.334 16.6957C242.216 12.1621 252.899 4.49364 265.258 1.46725C286.147 -3.633 307.772 5.37985 326.509 15.936C337.288 22.0069 347.79 28.6565 359.064 33.8532C367.257 37.6332 376.68 41.8653 385.397 44.2105C393.94 46.5074 402.742 41.9015 410.241 38.1215C426.519 29.9105 441.819 17.6723 460.544 15.7431C484.255 13.3317 507.743 28.6264 531.08 23.7251C541.027 21.6331 549.859 16.0144 559.541 12.9217C584.861 4.81316 612.25 14.7303 636.189 26.3355C649.242 32.6535 662.48 39.912 671.759 50.8601C673.034 52.3601 674.227 53.9278 675.333 55.5564C675.46 55.7373 675.581 55.9242 675.701 56.111C682.538 66.4683 685.504 78.8753 688.301 90.9869C693.775 114.643 699.014 139.566 699.9 163.891C700.437 178.909 699.328 193.703 695.59 207.804Z" fill="#F1C40F"/>
<g opacity="0.1">
<path opacity="0.1" d="M665.169 386.94C664.675 388.267 664.049 389.542 663.3 390.744C629.815 407.861 594.03 420.044 557.057 426.916C536.367 430.774 514.814 434.572 492.737 438.172C469.696 439.377 446.57 439.245 423.48 439.13C355.869 438.799 288.185 438.467 220.785 433.101C189.972 430.69 159.051 427.151 129.408 418.404C88.7101 406.361 51.4646 384.801 20.7535 355.506C19.6563 354.464 18.5772 353.402 17.5041 352.323C11.0414 345.8 5.14533 338.584 2.16717 329.957C-1.90821 318.02 0.201823 305.276 4.90418 293.321L647.234 300.646C644.572 315.482 646.549 330.778 652.895 344.45C653.395 345.517 653.932 346.596 654.48 347.675C660.991 360.492 670.095 373.791 665.169 386.94Z" fill="black"/>
<path opacity="0.1" d="M671.747 50.8541H50.2156L51.6564 50.1306C86.4396 33.0515 124.53 23.7665 163.271 22.9233C185.848 22.453 209.228 24.7319 230.334 16.7017C242.216 12.1681 252.899 4.49968 265.258 1.47329C286.147 -3.62696 307.772 5.38589 326.509 15.9421C337.288 22.0129 347.79 28.6626 359.064 33.8593C367.257 37.6392 376.68 41.8714 385.397 44.2165C393.94 46.5134 402.742 41.9075 410.241 38.1276C426.519 29.9165 441.819 17.6783 460.544 15.7492C484.255 13.3377 507.743 28.6324 531.08 23.7311C541.027 21.6392 549.859 16.0205 559.541 12.9277C584.861 4.8192 612.25 14.7363 636.19 26.3415C649.211 32.6475 662.45 39.906 671.747 50.8541Z" fill="black"/>
<path opacity="0.1" d="M27.4273 169.064C34.7581 188.724 40.9315 208.883 36.7295 229.049C33.3293 245.399 23.4664 259.416 14.8696 273.8L648.03 296.709C648.772 293.543 649.735 290.433 650.911 287.401C658.857 266.982 675.557 251.229 686.034 232.003C690.181 224.35 693.389 216.225 695.59 207.804L27.4273 169.064ZM281.656 241.306H265.62C266.682 241.276 267.739 241.46 268.729 241.847C269.719 242.233 270.622 242.814 271.383 243.555C272.145 244.296 272.751 245.182 273.164 246.161C273.577 247.14 273.79 248.192 273.79 249.254C273.79 250.317 273.577 251.369 273.164 252.348C272.751 253.327 272.145 254.213 271.383 254.954C270.622 255.695 269.719 256.276 268.729 256.662C267.739 257.048 266.682 257.232 265.62 257.203H172.778C171.716 257.232 170.659 257.048 169.669 256.662C168.679 256.276 167.776 255.695 167.015 254.954C166.253 254.213 165.647 253.327 165.234 252.348C164.821 251.369 164.608 250.317 164.608 249.254C164.608 248.192 164.821 247.14 165.234 246.161C165.647 245.182 166.253 244.296 167.015 243.555C167.776 242.814 168.679 242.233 169.669 241.847C170.659 241.46 171.716 241.276 172.778 241.306H188.827C187.764 241.335 186.707 241.151 185.717 240.765C184.727 240.378 183.825 239.797 183.063 239.056C182.301 238.315 181.696 237.429 181.282 236.45C180.869 235.471 180.656 234.419 180.656 233.357C180.656 232.294 180.869 231.242 181.282 230.263C181.696 229.284 182.301 228.398 183.063 227.657C183.825 226.916 184.727 226.335 185.717 225.949C186.707 225.563 187.764 225.379 188.827 225.408H177.372C175.265 225.408 173.244 224.571 171.754 223.081C170.264 221.591 169.426 219.57 169.426 217.462C169.426 215.355 170.264 213.334 171.754 211.844C173.244 210.354 175.265 209.516 177.372 209.516H270.214C272.321 209.516 274.342 210.354 275.832 211.844C277.322 213.334 278.159 215.355 278.159 217.462C278.159 219.57 277.322 221.591 275.832 223.081C274.342 224.571 272.321 225.408 270.214 225.408H281.668C282.73 225.379 283.788 225.563 284.778 225.949C285.768 226.335 286.67 226.916 287.432 227.657C288.193 228.398 288.799 229.284 289.212 230.263C289.626 231.242 289.839 232.294 289.839 233.357C289.839 234.419 289.626 235.471 289.212 236.45C288.799 237.429 288.193 238.315 287.432 239.056C286.67 239.797 285.768 240.378 284.778 240.765C283.788 241.151 282.73 241.335 281.668 241.306H281.656Z" fill="black"/>
<path opacity="0.1" d="M688.289 90.9809C685.492 78.8693 682.526 66.4623 675.689 56.105L21.9231 71.8519C21.4589 72.4548 21.0068 73.0576 20.5787 73.6605C5.04287 95.635 11.2102 125.917 20.6089 151.135C22.1824 155.355 23.8342 159.605 25.468 163.879H699.888C699.002 139.56 693.763 114.637 688.289 90.9809ZM140.049 121.667H124.006C125.069 121.637 126.126 121.821 127.116 122.208C128.106 122.594 129.009 123.175 129.77 123.916C130.532 124.657 131.137 125.543 131.551 126.522C131.964 127.501 132.177 128.553 132.177 129.616C132.177 130.678 131.964 131.73 131.551 132.709C131.137 133.688 130.532 134.574 129.77 135.315C129.009 136.056 128.106 136.637 127.116 137.023C126.126 137.41 125.069 137.594 124.006 137.564H31.1651C30.1028 137.594 29.0454 137.41 28.0555 137.023C27.0655 136.637 26.163 136.056 25.4013 135.315C24.6396 134.574 24.0342 133.688 23.6207 132.709C23.2073 131.73 22.9943 130.678 22.9943 129.616C22.9943 128.553 23.2073 127.501 23.6207 126.522C24.0342 125.543 24.6396 124.657 25.4013 123.916C26.163 123.175 27.0655 122.594 28.0555 122.208C29.0454 121.821 30.1028 121.637 31.1651 121.667H47.2013C46.139 121.696 45.0817 121.512 44.0917 121.126C43.1017 120.739 42.1992 120.159 41.4375 119.418C40.6758 118.677 40.0704 117.79 39.657 116.811C39.2436 115.833 39.0306 114.781 39.0306 113.718C39.0306 112.655 39.2436 111.603 39.657 110.624C40.0704 109.645 40.6758 108.759 41.4375 108.018C42.1992 107.277 43.1017 106.696 44.0917 106.31C45.0817 105.924 46.139 105.74 47.2013 105.769H35.7468C33.6395 105.769 31.6185 104.932 30.1283 103.442C28.6382 101.952 27.8011 99.9307 27.8011 97.8234C27.8011 95.716 28.6382 93.695 30.1283 92.2049C31.6185 90.7147 33.6395 89.8776 35.7468 89.8776H128.588C130.696 89.8776 132.717 90.7147 134.207 92.2049C135.697 93.695 136.534 95.716 136.534 97.8234C136.534 99.9307 135.697 101.952 134.207 103.442C132.717 104.932 130.696 105.769 128.588 105.769H140.043C141.105 105.74 142.162 105.924 143.152 106.31C144.142 106.696 145.045 107.277 145.806 108.018C146.568 108.759 147.174 109.645 147.587 110.624C148 111.603 148.213 112.655 148.213 113.718C148.213 114.781 148 115.833 147.587 116.811C147.174 117.79 146.568 118.677 145.806 119.418C145.045 120.159 144.142 120.739 143.152 121.126C142.162 121.512 141.105 121.696 140.043 121.667H140.049Z" fill="black"/>
</g>
<path d="M665.169 387.458C661.341 397.707 650.333 403.097 640.163 407.118C600.751 422.714 559.358 432.737 517.178 436.899C486.07 439.968 454.739 439.817 423.474 439.661C355.863 439.329 288.179 438.997 220.779 433.632C189.966 431.22 159.045 427.682 129.402 418.934C88.7033 406.882 51.4598 385.311 20.7535 356.007C19.6563 354.964 18.5772 353.903 17.5041 352.824C26.7383 351.648 36.0671 351.402 45.3505 352.088C71.4003 353.867 96.781 361.101 122.71 364.242C223.1 376.372 326.021 326.756 424.059 351.546C454.317 359.202 482.971 373.803 514.049 376.733C559.921 381.062 603.767 359.618 648.705 349.399C650.592 348.965 652.521 348.561 654.463 348.194C660.992 360.999 670.095 374.298 665.169 387.458Z" fill="#10316B"/>
<path d="M547.303 377.692C545.885 378.792 544.142 379.389 542.347 379.389C540.553 379.389 538.81 378.792 537.392 377.692C536.011 368.559 539.52 350.605 540.346 346.584C540.46 346.06 540.521 345.77 540.521 345.77H544.487C544.747 346.038 544.951 346.353 545.09 346.699C547.845 352.534 547.303 377.692 547.303 377.692Z" fill="#3F3D56"/>
<path opacity="0.1" d="M543.674 342.081V345.77H541.998V342.075C542.267 342.033 542.539 342.013 542.812 342.014C543.1 342.015 543.388 342.037 543.674 342.081Z" fill="black"/>
<path opacity="0.1" d="M545.102 346.699C544.396 347.067 543.608 347.252 542.812 347.235C541.945 347.254 541.09 347.029 540.346 346.584C540.46 346.06 540.521 345.77 540.521 345.77H544.487C544.751 346.037 544.96 346.352 545.102 346.699Z" fill="black"/>
<path d="M542.818 346.608C544.662 346.608 546.157 345.72 546.157 344.625C546.157 343.529 544.662 342.641 542.818 342.641C540.973 342.641 539.478 343.529 539.478 344.625C539.478 345.72 540.973 346.608 542.818 346.608Z" fill="#3F3D56"/>
<path opacity="0.1" d="M545.717 173.164L545.265 174.616H540.575L540.225 173.634C540.618 173.242 541.091 172.938 541.61 172.743C542.13 172.547 542.685 172.465 543.24 172.5C544.112 172.478 544.973 172.708 545.717 173.164Z" fill="black"/>
<path d="M393.222 348.435C393.222 348.435 353.035 346.741 348.815 268.091C344.595 189.441 386.452 176.118 386.452 176.118C386.452 176.118 399.715 168.708 405.593 168.401C411.471 168.093 431.131 169.95 431.131 169.95L409.464 165.766C409.464 165.766 439.957 154.161 449.084 153.233L416.125 160.178C416.125 160.178 415.661 141.917 423.553 135.876C423.553 135.876 416.825 135.376 413.238 148.536C412.219 152.332 410.325 155.836 407.708 158.768C405.09 161.699 401.822 163.977 398.166 165.417C385.934 170.185 369.029 177.715 365.183 184.16C365.183 184.16 358.063 191.593 359.154 172.247C360.246 152.901 365.346 136.334 367.203 135.87C367.203 135.87 381.756 120.395 402.169 119.466C402.169 119.466 390.256 114.643 370.133 129.685C370.133 129.685 368.433 122.101 376.017 113.124C383.601 104.147 395.363 85.2596 408.21 83.2521C408.21 83.2521 390.256 82.1669 376.017 105.383C376.017 105.383 370.754 108.789 370.289 100.12C369.825 91.4511 366.726 80.6176 366.726 80.6176C366.726 80.6176 362.392 100.584 371.549 109.555C371.549 109.555 354.066 132.307 354.838 157.845C354.838 157.845 349.412 169.456 347.405 155.831C347.405 155.831 346.241 137.076 343.914 121.166C342.973 114.754 343.365 108.217 345.065 101.963C346.765 95.7087 349.737 89.8727 353.795 84.8195C357.659 79.9966 360.354 75.3304 358.859 72.8768L338.585 96.9914C338.585 96.9914 321.56 57.5218 309.177 49.0093C296.794 40.4968 295.245 38.64 295.245 38.64L315.211 62.0071L290.138 53.1871L315.211 64.7983C315.211 64.7983 326.823 74.2392 333.478 100.084C340.134 125.929 340.749 142.092 340.749 142.092C340.749 142.092 304.999 113.757 298.187 114.698L321.325 132.181C327.618 136.939 332.816 142.993 336.568 149.933C340.319 156.873 342.537 164.539 343.07 172.41C343.07 172.41 298.343 160.956 287.51 158.791L267.079 137.896L282.554 157.706L250.675 157.242L232.408 144.244C232.408 144.244 246.804 156.301 245.412 157.091C244.019 157.881 222.967 158.791 222.967 158.791C222.967 158.791 276.52 158.484 282.403 162.354C288.287 166.225 301.436 167.611 301.436 167.611L263.516 173.338L308.731 170.089C308.731 170.089 342.937 176.28 344.794 186.969C344.794 186.969 337.825 205.14 333.183 212.35C329.331 218.336 321.578 237.731 320.028 254.755C318.479 271.78 316.315 297.939 322.199 313.879C328.083 329.818 330.241 338.952 327.305 343.751C324.369 348.549 321.578 354.741 331.175 355.977C340.773 357.213 382.865 355.374 382.865 355.374C382.865 355.374 395.7 357.918 393.222 348.435Z" fill="#10316B"/>
<path opacity="0.1" d="M370.723 339.989C366.517 337.844 361.692 337.24 357.087 338.283C349.201 339.989 337.132 339.084 336.028 338.885" fill="black"/>
<path opacity="0.1" d="M345.505 247.304C345.505 247.304 343.588 277.562 347.001 283.524L345.505 247.304Z" fill="black"/>
<path opacity="0.1" d="M338.428 283.524C338.428 283.524 340.888 311.859 342.588 317.399C344.288 322.94 338.428 283.524 338.428 283.524Z" fill="black"/>
<path opacity="0.1" d="M336.028 213.833C334.292 214.472 326.835 229.598 328.324 234.071C329.813 238.544 336.028 213.833 336.028 213.833Z" fill="black"/>
<path opacity="0.1" d="M354.94 198.158C354.126 198.526 350.66 207.238 351.353 209.818C352.047 212.398 354.94 198.158 354.94 198.158Z" fill="black"/>
<path opacity="0.1" d="M322.651 248.962C323.507 257.746 323.977 263.497 323.429 270.526C322.969 275.991 323.048 281.487 323.664 286.936" fill="black"/>
<path opacity="0.1" d="M416.023 146.662C415.045 147.938 414.533 149.51 414.57 151.117C414.516 152.708 414.727 154.306 414.618 155.891C414.51 157.567 413.714 159.509 412.056 159.75" fill="black"/>
<path opacity="0.1" d="M387.441 94.2845C385.323 96.3875 383.445 98.7188 381.84 101.236C381.376 102.034 380.843 102.79 380.249 103.496C379.292 104.412 378.266 105.253 377.18 106.01C374.764 107.977 373.047 110.67 372.285 113.691" fill="black"/>
<path opacity="0.1" d="M306.536 49.0575C307.044 50.0482 307.715 50.9468 308.52 51.7161C309.225 52.3853 310.021 52.9219 310.66 53.6755C311.165 54.3139 311.623 54.989 312.028 55.6951C313.731 58.2614 315.645 60.6812 317.75 62.9295" fill="black"/>
<path opacity="0.1" d="M343.992 93.8625C342.66 94.6945 342.31 96.479 342.34 98.0826C342.371 99.6862 342.636 101.29 342.051 102.749C341.786 103.418 341.358 104.003 341.08 104.66C340.678 105.821 340.52 107.052 340.616 108.277C340.64 109.708 340.685 111.133 340.749 112.551C340.821 114.27 340.984 116.126 342.148 117.374" fill="black"/>
<path opacity="0.1" d="M342.901 178.644C342.019 177.925 341.081 177.276 340.098 176.702C339.199 176.153 338.229 175.727 337.216 175.436C335.673 175.026 334.051 175.087 332.466 174.924C330.88 174.761 329.216 174.321 328.131 173.145" fill="black"/>
<path opacity="0.1" d="M279.968 159.093C281.849 159.147 283.808 159.213 285.478 160.075C286.334 160.515 287.076 161.142 287.92 161.613C289.006 162.216 290.228 162.535 291.471 162.541" fill="black"/>
<path opacity="0.1" d="M306.078 166.864C305.853 166.743 305.592 166.708 305.344 166.765C305.095 166.823 304.876 166.969 304.728 167.177C304.39 167.563 304.203 168.063 303.86 168.443C303.172 169.185 302.051 169.269 301.038 169.305" fill="black"/>
<path opacity="0.1" d="M316.863 126.863L318.672 127.81C320.553 128.717 322.34 129.807 324.007 131.065" fill="black"/>
<path opacity="0.1" d="M337.524 144.558C338.729 144.274 339.742 145.546 339.935 146.746C340.128 147.946 339.899 149.218 340.242 150.363C340.621 151.388 341.241 152.306 342.051 153.04" fill="black"/>
<path opacity="0.1" d="M357.659 146.77C358.738 150.001 356.454 153.528 357.117 156.868C357.322 157.887 357.792 158.833 358.033 159.84C358.636 162.499 357.581 165.332 355.845 167.442" fill="black"/>
<path d="M297.74 330.994C297.401 331.464 297.129 331.98 296.933 332.525C296.878 332.658 296.83 332.809 296.782 332.953C296.691 332.912 296.596 332.88 296.499 332.857C296.083 332.754 295.654 332.718 295.226 332.748C295.226 332.586 295.226 332.411 295.226 332.224C295.281 330.343 295.058 327.726 293.267 328.836C291.477 329.945 292.773 331.681 293.87 332.833L294.153 333.11C293.141 333.839 292.948 335.521 292.779 337.264C292.61 339.006 291.127 340.929 290.138 342.02L289.861 342.322C289.462 342.004 288.999 341.774 288.505 341.647C288.01 341.52 287.494 341.499 286.991 341.586C286.949 341.43 286.907 341.273 286.859 341.104C286.057 338.216 284.399 333.219 282.283 332.127C282.373 332.013 282.47 331.898 282.56 331.772C283.465 330.566 284.471 328.854 282.976 328.402C281.481 327.949 281.348 329.921 281.433 331.416C281.433 331.603 281.433 331.778 281.475 331.94C281.176 331.954 280.883 332.029 280.615 332.161C280.346 332.292 280.107 332.478 279.914 332.706L279.679 332.429C278.473 331 276.248 328.733 275.573 330.445C274.97 332.043 276.905 334.123 278.28 335.323L278.364 335.395C277.442 339.145 281.475 342.201 283.645 343.54L283.929 343.714C280.914 347.241 279.106 353.861 279.106 353.861L287.498 355.362C287.498 355.362 293.056 350.539 292.321 346.054H292.381C297.939 344.938 299.205 339.012 298.337 335.491L298.434 335.455C299.445 335.039 300.332 334.368 301.008 333.508C302.6 331.313 299.338 328.872 297.74 330.994Z" fill="#3F3D56"/>
<path opacity="0.1" d="M297.74 330.994C297.401 331.464 297.129 331.98 296.933 332.525C296.878 332.658 296.83 332.809 296.782 332.953C296.691 332.912 296.596 332.88 296.499 332.857C296.083 332.754 295.654 332.718 295.226 332.748C295.226 332.586 295.226 332.411 295.226 332.224C295.281 330.343 295.058 327.726 293.267 328.836C291.477 329.945 292.773 331.681 293.87 332.833L294.153 333.11C293.141 333.839 292.948 335.521 292.779 337.264C292.61 339.006 291.127 340.929 290.138 342.02L289.861 342.322C289.462 342.004 288.999 341.774 288.505 341.647C288.01 341.52 287.494 341.499 286.991 341.586C286.949 341.43 286.907 341.273 286.859 341.104C286.057 338.216 284.399 333.219 282.283 332.127C282.373 332.013 282.47 331.898 282.56 331.772C283.465 330.566 284.471 328.854 282.976 328.402C281.481 327.949 281.348 329.921 281.433 331.416C281.433 331.603 281.433 331.778 281.475 331.94C281.176 331.954 280.883 332.029 280.615 332.161C280.346 332.292 280.107 332.478 279.914 332.706L279.679 332.429C278.473 331 276.248 328.733 275.573 330.445C274.97 332.043 276.905 334.123 278.28 335.323L278.364 335.395C277.442 339.145 281.475 342.201 283.645 343.54L283.929 343.714C280.914 347.241 279.106 353.861 279.106 353.861L287.498 355.362C287.498 355.362 293.056 350.539 292.321 346.054H292.381C297.939 344.938 299.205 339.012 298.337 335.491L298.434 335.455C299.445 335.039 300.332 334.368 301.008 333.508C302.6 331.313 299.338 328.872 297.74 330.994Z" fill="black"/>
<path d="M281.041 333.411L280.088 336.281C280.088 336.281 279.54 335.895 278.883 335.292C277.508 334.087 275.549 332.013 276.176 330.415C276.851 328.703 279.076 330.97 280.287 332.399C280.721 332.971 281.041 333.411 281.041 333.411Z" fill="#3F3D56"/>
<path d="M283.103 331.772C282.804 332.165 282.484 332.541 282.144 332.899C282.144 332.899 282.024 332.218 281.969 331.386C281.891 329.921 282.042 327.968 283.519 328.371C284.996 328.775 284.013 330.596 283.103 331.772Z" fill="#3F3D56"/>
<path d="M295.763 332.224C295.733 333.17 295.642 333.924 295.642 333.924C295.217 333.587 294.814 333.222 294.437 332.833C293.327 331.681 292.098 329.903 293.834 328.836C295.57 327.769 295.817 330.343 295.763 332.224Z" fill="#3F3D56"/>
<path d="M301.557 333.466C300.882 334.327 299.995 334.998 298.982 335.413C298.701 335.533 298.413 335.638 298.12 335.726L296.969 334.099C297.091 333.564 297.25 333.038 297.445 332.525C297.641 331.98 297.913 331.464 298.253 330.994C299.85 328.872 303.112 331.313 301.557 333.466Z" fill="#3F3D56"/>
<path opacity="0.1" d="M280.233 332.399C280.721 333.001 281.041 333.411 281.041 333.411L280.088 336.281C280.088 336.281 279.54 335.895 278.883 335.292C279.037 334.374 279.416 333.509 279.986 332.772C280.028 332.634 280.137 332.513 280.233 332.399Z" fill="black"/>
<path opacity="0.1" d="M283.103 331.772C282.804 332.165 282.484 332.541 282.144 332.899C282.144 332.899 282.024 332.218 281.969 331.386C282.378 331.396 282.773 331.53 283.103 331.772Z" fill="black"/>
<path d="M287.926 343.172L285.514 344.245C285.514 344.245 284.978 343.986 284.212 343.509C281.65 341.936 276.495 337.963 279.95 333.261C283.404 328.558 286.292 336.974 287.425 341.098C287.751 342.328 287.926 343.172 287.926 343.172Z" fill="#3F3D56"/>
<path opacity="0.1" d="M294.419 332.833C294.774 332.469 295.255 332.253 295.763 332.23C295.733 333.176 295.642 333.93 295.642 333.93C295.211 333.592 294.802 333.225 294.419 332.833Z" fill="black"/>
<path opacity="0.1" d="M298.982 335.413C298.701 335.533 298.413 335.638 298.12 335.726L296.969 334.099C297.091 333.564 297.25 333.038 297.445 332.525C298.174 332.959 298.741 334.044 298.982 335.413Z" fill="black"/>
<path d="M292.93 346.011C292.797 346.011 292.658 346.066 292.52 346.084C284.339 347.326 289.819 342.913 289.819 342.913C289.819 342.913 290.193 342.575 290.687 342.02C291.676 340.929 293.159 339.006 293.327 337.264C293.587 334.611 293.882 332.127 297.011 332.857C300.14 333.586 300.67 344.462 292.93 346.011Z" fill="#3F3D56"/>
<path opacity="0.1" d="M287.407 341.104C287.751 342.31 287.938 343.172 287.938 343.172L285.526 344.245C285.526 344.245 284.99 343.986 284.224 343.509C285.153 342.298 286.232 341.381 287.407 341.104Z" fill="black"/>
<path opacity="0.1" d="M292.93 346.011C292.797 346.011 292.658 346.066 292.52 346.084C284.339 347.326 289.819 342.913 289.819 342.913C289.819 342.913 290.193 342.575 290.687 342.02C291.329 342.482 291.862 343.078 292.25 343.768C292.637 344.457 292.869 345.223 292.93 346.011Z" fill="black"/>
<path d="M279.63 353.83C279.63 353.83 284.212 337.439 290.633 342.491C297.053 347.543 288.022 355.332 288.022 355.332L279.63 353.83Z" fill="#3F3D56"/>
<path opacity="0.1" d="M281.945 336.365C282.228 336.365 282.458 336.136 282.458 335.853C282.458 335.57 282.228 335.341 281.945 335.341C281.662 335.341 281.433 335.57 281.433 335.853C281.433 336.136 281.662 336.365 281.945 336.365Z" fill="black"/>
<path opacity="0.1" d="M281.903 338.765C282.186 338.765 282.416 338.535 282.416 338.252C282.416 337.969 282.186 337.74 281.903 337.74C281.62 337.74 281.391 337.969 281.391 338.252C281.391 338.535 281.62 338.765 281.903 338.765Z" fill="black"/>
<path opacity="0.1" d="M296.8 336.842C297.083 336.842 297.312 336.612 297.312 336.329C297.312 336.046 297.083 335.817 296.8 335.817C296.517 335.817 296.288 336.046 296.288 336.329C296.288 336.612 296.517 336.842 296.8 336.842Z" fill="black"/>
<path opacity="0.1" d="M284.815 349.122C285.098 349.122 285.327 348.893 285.327 348.61C285.327 348.327 285.098 348.097 284.815 348.097C284.532 348.097 284.303 348.327 284.303 348.61C284.303 348.893 284.532 349.122 284.815 349.122Z" fill="black"/>
<path opacity="0.1" d="M295.727 340.821C296.01 340.821 296.239 340.591 296.239 340.308C296.239 340.025 296.01 339.796 295.727 339.796C295.444 339.796 295.214 340.025 295.214 340.308C295.214 340.591 295.444 340.821 295.727 340.821Z" fill="black"/>
<path opacity="0.1" d="M290.422 346.126C290.705 346.126 290.934 345.896 290.934 345.613C290.934 345.33 290.705 345.101 290.422 345.101C290.139 345.101 289.909 345.33 289.909 345.613C289.909 345.896 290.139 346.126 290.422 346.126Z" fill="black"/>
<path opacity="0.1" d="M283.7 337.396C283.983 337.396 284.212 337.167 284.212 336.884C284.212 336.601 283.983 336.371 283.7 336.371C283.417 336.371 283.187 336.601 283.187 336.884C283.187 337.167 283.417 337.396 283.7 337.396Z" fill="black"/>
<path opacity="0.1" d="M295.383 338.379C295.666 338.379 295.896 338.15 295.896 337.867C295.896 337.584 295.666 337.354 295.383 337.354C295.1 337.354 294.871 337.584 294.871 337.867C294.871 338.15 295.1 338.379 295.383 338.379Z" fill="black"/>
<path opacity="0.1" d="M293.629 342.364C293.912 342.364 294.141 342.135 294.141 341.852C294.141 341.569 293.912 341.339 293.629 341.339C293.346 341.339 293.116 341.569 293.116 341.852C293.116 342.135 293.346 342.364 293.629 342.364Z" fill="black"/>
<path opacity="0.1" d="M288.239 348.736C288.522 348.736 288.752 348.507 288.752 348.224C288.752 347.941 288.522 347.711 288.239 347.711C287.956 347.711 287.727 347.941 287.727 348.224C287.727 348.507 287.956 348.736 288.239 348.736Z" fill="black"/>
<path opacity="0.1" d="M287.124 346.216C287.407 346.216 287.636 345.987 287.636 345.704C287.636 345.421 287.407 345.191 287.124 345.191C286.841 345.191 286.612 345.421 286.612 345.704C286.612 345.987 286.841 346.216 287.124 346.216Z" fill="black"/>
<path opacity="0.1" d="M284.471 340.519C284.754 340.519 284.984 340.29 284.984 340.007C284.984 339.724 284.754 339.494 284.471 339.494C284.188 339.494 283.959 339.724 283.959 340.007C283.959 340.29 284.188 340.519 284.471 340.519Z" fill="black"/>
<path opacity="0.1" d="M288.92 351.051C289.203 351.051 289.433 350.822 289.433 350.539C289.433 350.256 289.203 350.026 288.92 350.026C288.637 350.026 288.408 350.256 288.408 350.539C288.408 350.822 288.637 351.051 288.92 351.051Z" fill="black"/>
<path opacity="0.1" d="M285.84 351.69C286.123 351.69 286.352 351.461 286.352 351.178C286.352 350.895 286.123 350.665 285.84 350.665C285.557 350.665 285.327 350.895 285.327 351.178C285.327 351.461 285.557 351.69 285.84 351.69Z" fill="black"/>
<path d="M208.854 364.634C208.854 364.634 218.379 345.505 222.629 344.673L208.854 364.634Z" fill="#3F3D56"/>
<path d="M211.253 368.697C211.253 368.697 220.779 349.568 225.029 348.736L211.253 368.697Z" fill="#3F3D56"/>
<path d="M213.333 372.917C213.333 372.917 222.852 353.782 227.103 352.956L213.333 372.917Z" fill="#3F3D56"/>
<path d="M249.975 360.932C249.975 360.932 259.501 341.803 263.745 340.971L249.975 360.932Z" fill="#3F3D56"/>
<path d="M252.357 364.965C252.357 364.965 261.882 345.837 266.126 345.005L252.357 364.965Z" fill="#3F3D56"/>
<path d="M254.449 369.185C254.449 369.185 263.974 350.057 268.224 349.225L254.449 369.185Z" fill="#3F3D56"/>
<path d="M373.894 341.689C373.894 341.689 383.414 322.56 387.664 321.734L373.894 341.689Z" fill="#3F3D56"/>
<path d="M376.294 345.758C376.294 345.758 385.813 326.623 390.063 325.797L376.294 345.758Z" fill="#3F3D56"/>
<path d="M378.356 349.972C378.356 349.972 387.875 330.843 392.125 330.017L378.356 349.972Z" fill="#3F3D56"/>
<path d="M220.477 368.36C220.477 368.36 213.9 348.031 216.354 344.462L220.477 368.36Z" fill="#3F3D56"/>
<path d="M257.861 366.105C257.861 366.105 251.284 345.776 253.737 342.213L257.861 366.105Z" fill="#3F3D56"/>
<path d="M378.356 352.89C378.356 352.89 371.784 332.561 374.244 328.98L378.356 352.89Z" fill="#3F3D56"/>
<path d="M537.94 381.87C537.94 381.87 529.597 367.094 517.015 362.831C511.739 361.079 507.174 357.663 504.005 353.095C502.515 350.915 501.23 348.602 500.165 346.186" stroke="#3F3D56" stroke-width="2" stroke-miterlimit="10"/>
<path d="M492.731 343.913C494.16 345.306 500.828 346.741 500.828 346.741C500.828 346.741 499.194 340.109 497.759 338.729C497.426 338.366 497.022 338.075 496.573 337.873C496.123 337.672 495.637 337.565 495.144 337.558C494.652 337.551 494.163 337.645 493.708 337.834C493.253 338.023 492.841 338.303 492.498 338.657C492.155 339.01 491.888 339.431 491.713 339.891C491.538 340.352 491.459 340.843 491.481 341.335C491.503 341.828 491.625 342.31 491.84 342.753C492.055 343.197 492.358 343.591 492.731 343.913Z" fill="#3F3D56"/>
<path d="M496.035 355.428C497.994 355.82 504.373 353.396 504.373 353.396C504.373 353.396 499.399 348.73 497.44 348.344C496.526 348.219 495.599 348.447 494.849 348.983C494.098 349.518 493.58 350.32 493.4 351.224C493.221 352.129 493.394 353.068 493.883 353.849C494.373 354.63 495.143 355.195 496.035 355.428Z" fill="#3F3D56"/>
<path d="M509.78 368.396C511.667 367.745 515.954 362.433 515.954 362.433C515.954 362.433 509.322 360.914 507.417 361.565C506.55 361.908 505.848 362.572 505.459 363.419C505.069 364.266 505.022 365.231 505.327 366.113C505.632 366.994 506.265 367.723 507.095 368.149C507.925 368.574 508.887 368.663 509.78 368.396Z" fill="#3F3D56"/>
<path d="M522.368 375.865C524.34 375.54 529.458 371.042 529.458 371.042C529.458 371.042 523.164 368.42 521.193 368.745C520.708 368.805 520.24 368.963 519.818 369.209C519.395 369.454 519.027 369.783 518.735 370.175C518.443 370.567 518.234 371.014 518.12 371.489C518.005 371.964 517.988 372.457 518.07 372.939C518.151 373.421 518.33 373.881 518.594 374.292C518.858 374.703 519.203 375.056 519.607 375.33C520.012 375.604 520.468 375.793 520.948 375.886C521.427 375.979 521.921 375.974 522.398 375.871L522.368 375.865Z" fill="#3F3D56"/>
<path d="M509.931 348.224C509.931 350.219 506.314 356.007 506.314 356.007C506.314 356.007 502.697 350.225 502.697 348.23C502.697 347.271 503.078 346.35 503.756 345.672C504.435 344.994 505.355 344.613 506.314 344.613C507.273 344.613 508.193 344.994 508.872 345.672C509.55 346.35 509.931 347.271 509.931 348.23V348.224Z" fill="#3F3D56"/>
<path d="M524.557 357.146C523.954 359.051 518.781 363.494 518.781 363.494C518.781 363.494 517.063 356.863 517.66 354.988C517.979 354.114 518.622 353.396 519.456 352.984C520.29 352.572 521.251 352.497 522.138 352.775C523.026 353.053 523.773 353.662 524.223 354.476C524.674 355.29 524.793 356.246 524.557 357.146Z" fill="#3F3D56"/>
<path d="M537.585 367.775C537.313 369.752 532.967 375.009 532.967 375.009C532.967 375.009 530.157 368.794 530.423 366.816C530.589 365.901 531.102 365.085 531.855 364.538C532.608 363.991 533.542 363.755 534.464 363.879C535.386 364.003 536.225 364.478 536.806 365.205C537.388 365.931 537.666 366.854 537.585 367.781V367.775Z" fill="#3F3D56"/>
<path d="M537.458 381.58C537.458 381.58 535.824 364.7 526.058 355.699C521.942 351.955 519.149 346.978 518.1 341.514C517.623 338.917 517.384 336.281 517.389 333.641" stroke="#3F3D56" stroke-width="2" stroke-miterlimit="10"/>
<path d="M511.27 328.872C512.017 330.723 517.533 334.744 517.533 334.744C517.533 334.744 518.739 328.022 517.973 326.171C517.588 325.323 516.889 324.656 516.024 324.31C515.159 323.964 514.193 323.965 513.329 324.313C512.464 324.661 511.768 325.33 511.384 326.179C511 327.028 510.959 327.993 511.27 328.872Z" fill="#3F3D56"/>
<path d="M509.865 340.435C511.499 341.58 518.305 341.954 518.305 341.954C518.305 341.954 515.652 335.672 514.025 334.527C513.24 334.03 512.295 333.855 511.384 334.036C510.473 334.217 509.667 334.742 509.133 335.501C508.598 336.26 508.376 337.196 508.513 338.114C508.649 339.033 509.133 339.864 509.865 340.435Z" fill="#3F3D56"/>
<path d="M517.166 357.84C519.155 358.008 525.226 354.892 525.226 354.892C525.226 354.892 519.758 350.81 517.775 350.641C517.287 350.573 516.792 350.605 516.317 350.736C515.843 350.866 515.4 351.091 515.016 351.398C514.632 351.705 514.315 352.087 514.083 352.521C513.852 352.955 513.711 353.432 513.67 353.922C513.629 354.412 513.688 354.905 513.844 355.372C514 355.838 514.25 356.268 514.578 356.634C514.905 357.001 515.304 357.297 515.75 357.504C516.196 357.711 516.68 357.826 517.172 357.84H517.166Z" fill="#3F3D56"/>
<path d="M525.66 369.776C527.589 370.277 534.1 368.233 534.1 368.233C534.1 368.233 529.404 363.283 527.469 362.807C527 362.658 526.506 362.606 526.016 362.654C525.527 362.702 525.052 362.85 524.622 363.087C524.191 363.325 523.814 363.648 523.512 364.037C523.211 364.426 522.992 364.872 522.869 365.348C522.746 365.824 522.721 366.321 522.796 366.807C522.871 367.293 523.045 367.758 523.306 368.175C523.567 368.592 523.911 368.951 524.315 369.23C524.72 369.51 525.178 369.704 525.66 369.8V369.776Z" fill="#3F3D56"/>
<path d="M525.485 339.47C524.677 341.279 519.034 345.119 519.034 345.119C519.034 345.119 518.076 338.367 518.884 336.54C519.057 336.079 519.323 335.659 519.665 335.304C520.007 334.949 520.418 334.668 520.872 334.478C521.326 334.288 521.815 334.193 522.307 334.198C522.8 334.203 523.286 334.309 523.736 334.509C524.187 334.708 524.591 334.998 524.926 335.36C525.26 335.722 525.517 336.148 525.681 336.612C525.844 337.077 525.911 337.57 525.878 338.061C525.844 338.553 525.711 339.032 525.485 339.47Z" fill="#3F3D56"/>
<path d="M535.246 353.553C533.925 355.054 527.408 357.014 527.408 357.014C527.408 357.014 528.512 350.286 529.82 348.785C530.468 348.124 531.344 347.737 532.268 347.703C533.193 347.669 534.095 347.99 534.79 348.601C535.485 349.211 535.919 350.065 536.004 350.986C536.089 351.907 535.817 352.826 535.246 353.553Z" fill="#3F3D56"/>
<path d="M542.848 368.546C541.805 370.247 535.698 373.285 535.698 373.285C535.698 373.285 535.643 366.461 536.692 364.76C536.929 364.332 537.25 363.956 537.636 363.655C538.022 363.355 538.465 363.135 538.938 363.011C539.411 362.886 539.905 362.859 540.389 362.931C540.873 363.002 541.337 363.171 541.754 363.428C542.171 363.684 542.531 364.022 542.814 364.422C543.096 364.822 543.294 365.275 543.396 365.753C543.499 366.232 543.503 366.726 543.408 367.206C543.314 367.686 543.123 368.142 542.848 368.546Z" fill="#3F3D56"/>
<path d="M167.539 243.253C167.539 243.253 178.825 242.578 177.493 250.487C177.562 250.889 177.502 251.302 177.323 251.668C177.143 252.034 176.852 252.334 176.492 252.525C176.492 252.525 176.492 251.922 175.334 252.133C174.936 252.201 174.532 252.221 174.129 252.193C173.576 252.162 173.049 251.95 172.628 251.59C172.628 251.59 169.456 250.282 168.221 245.098C168.221 245.098 167.31 243.964 167.346 243.675L169.252 244.489C168.886 245.278 168.835 246.177 169.107 247.003C169.107 247.003 169.173 244.537 169.535 244.591C169.613 244.591 170.53 245.067 170.53 245.067C170.53 245.067 169.408 247.479 170.252 249.197C170.252 249.197 169.933 246.249 170.855 245.242L172.194 246.02C172.194 246.02 170.885 248.498 171.771 250.511C171.771 250.511 171.542 247.419 172.477 246.213L173.683 247.159C173.683 247.159 172.477 249.571 173.206 251.271C173.206 251.271 173.303 247.654 173.948 247.394C174.402 247.787 174.806 248.232 175.154 248.721C175.154 248.721 174.31 250.487 174.834 251.422C174.834 251.422 175.154 249.01 175.437 249.01C175.987 249.826 176.383 250.735 176.606 251.693C176.553 250.685 176.237 249.708 175.69 248.859C176.301 248.974 176.865 249.266 177.312 249.697C177.312 249.697 177.149 248.576 175.431 248.492C175.112 248.024 174.74 247.595 174.322 247.214C175.248 247.134 176.181 247.242 177.065 247.533C177.065 247.533 176.154 246.472 174.008 246.93L172.802 245.948C172.802 245.948 175.051 245.64 176.01 245.984C176.01 245.984 174.906 245.043 172.483 245.724L171.175 244.947C172.179 244.725 173.209 244.635 174.237 244.682C174.237 244.682 173.031 244.03 170.789 244.736L169.854 244.314C169.854 244.314 171.265 244.043 171.663 243.994C172.061 243.946 172.097 243.838 172.097 243.838C171.206 243.691 170.293 243.794 169.456 244.133C169.456 244.133 167.503 243.373 167.539 243.253Z" fill="#3F3D56"/>
<path d="M222.177 219.626C222.177 219.626 233.463 218.945 232.13 226.861C232.199 227.262 232.139 227.674 231.96 228.039C231.78 228.404 231.489 228.703 231.13 228.893C231.13 228.893 231.13 228.29 229.972 228.507C229.574 228.569 229.169 228.587 228.766 228.561C228.216 228.527 227.691 228.316 227.271 227.958C227.271 227.958 224.094 226.644 222.864 221.459C222.864 221.459 221.948 220.326 221.984 220.036L223.889 220.85C223.524 221.64 223.475 222.539 223.751 223.364C223.751 223.364 223.811 220.898 224.179 220.953C224.251 220.953 225.167 221.429 225.167 221.429C225.167 221.429 224.052 223.84 224.896 225.565C224.896 225.565 224.577 222.617 225.499 221.604L226.843 222.388C226.843 222.388 225.535 224.859 226.421 226.873C226.421 226.873 226.192 223.78 227.121 222.574L228.326 223.521C228.326 223.521 227.121 225.963 227.844 227.633C227.844 227.633 227.947 224.015 228.592 223.756C229.045 224.148 229.45 224.593 229.797 225.082C229.797 225.082 228.953 226.849 229.478 227.783C229.478 227.783 229.797 225.372 230.081 225.372C230.631 226.187 231.027 227.097 231.25 228.055C231.197 227.046 230.881 226.07 230.334 225.221C230.945 225.336 231.508 225.627 231.956 226.059C231.956 226.059 231.793 224.938 230.075 224.853C229.756 224.386 229.384 223.957 228.965 223.575C229.892 223.499 230.824 223.607 231.708 223.895C231.708 223.895 230.798 222.834 228.652 223.292L227.446 222.309C227.446 222.309 229.695 222.002 230.647 222.345C230.647 222.345 229.55 221.405 227.121 222.092L225.818 221.308C226.821 221.086 227.849 220.997 228.875 221.043C228.875 221.043 227.669 220.392 225.433 221.097L224.498 220.681C224.498 220.681 225.903 220.404 226.307 220.362C226.711 220.32 226.741 220.205 226.741 220.205C225.851 220.055 224.937 220.155 224.1 220.495C223.435 220.262 222.792 219.971 222.177 219.626Z" fill="#3F3D56"/>
<path d="M258.819 132.494C258.819 132.494 270.111 131.813 268.779 139.729C268.847 140.129 268.788 140.542 268.608 140.907C268.428 141.272 268.138 141.57 267.778 141.76C267.778 141.76 267.778 141.157 266.62 141.374C266.222 141.437 265.817 141.455 265.415 141.429C264.862 141.395 264.336 141.184 263.914 140.826C263.914 140.826 260.743 139.512 259.513 134.327C259.513 134.327 258.596 133.2 258.632 132.904L260.538 133.718C260.172 134.51 260.123 135.411 260.399 136.238C260.399 136.238 260.459 133.772 260.827 133.827C260.899 133.827 261.816 134.303 261.816 134.303C261.816 134.303 260.694 136.714 261.544 138.438C261.544 138.438 261.219 135.49 262.147 134.478L263.492 135.261C263.492 135.261 262.183 137.733 263.07 139.747C263.07 139.747 262.84 136.654 263.769 135.448L264.975 136.401C264.975 136.401 263.769 138.812 264.492 140.506C264.492 140.506 264.595 136.889 265.24 136.636C265.694 137.026 266.099 137.469 266.446 137.956C266.446 137.956 265.602 139.723 266.126 140.657C266.126 140.657 266.446 138.246 266.729 138.246C267.282 139.06 267.678 139.969 267.899 140.928C267.849 139.92 267.535 138.943 266.988 138.095C267.599 138.21 268.163 138.501 268.61 138.933C268.61 138.933 268.447 137.811 266.729 137.727C266.407 137.26 266.035 136.83 265.62 136.443C266.546 136.366 267.479 136.475 268.363 136.763C268.363 136.763 267.452 135.701 265.306 136.16L264.1 135.183C264.1 135.183 266.349 134.87 267.302 135.213C267.302 135.213 266.204 134.273 263.775 134.96L262.467 134.176C263.472 133.957 264.501 133.868 265.529 133.911C265.529 133.911 264.324 133.26 262.087 133.965L261.152 133.549C261.152 133.549 262.557 133.272 262.961 133.23C263.365 133.188 263.395 133.073 263.395 133.073C262.505 132.923 261.591 133.023 260.755 133.362C260.086 133.129 259.438 132.838 258.819 132.494Z" fill="#3F3D56"/>
<path d="M291.682 106.878C291.682 106.878 302.967 106.197 301.641 114.113C301.708 114.514 301.647 114.927 301.466 115.292C301.286 115.656 300.994 115.955 300.634 116.144C300.634 116.144 300.634 115.542 299.477 115.759C299.079 115.826 298.674 115.847 298.271 115.819C297.719 115.785 297.192 115.573 296.77 115.216C296.77 115.216 293.599 113.908 292.363 108.723C292.363 108.723 291.453 107.59 291.489 107.3L293.352 108.09C292.987 108.88 292.937 109.779 293.213 110.604C293.213 110.604 293.273 108.138 293.641 108.193C293.713 108.193 294.63 108.669 294.63 108.669C294.63 108.669 293.508 111.08 294.352 112.799C294.352 112.799 294.033 109.851 294.955 108.838L296.294 109.621C296.294 109.621 294.985 112.093 295.872 114.113C295.872 114.113 295.648 111.02 296.577 109.814L297.783 110.761C297.783 110.761 296.577 113.172 297.3 114.872C297.3 114.872 297.397 111.255 298.042 110.996C298.497 111.384 298.902 111.828 299.248 112.316C299.248 112.316 298.41 114.089 298.928 115.023C298.928 115.023 299.254 112.612 299.531 112.612C300.084 113.423 300.48 114.331 300.7 115.288C300.651 114.28 300.337 113.303 299.79 112.455C300.402 112.571 300.966 112.864 301.412 113.299C301.412 113.299 301.243 112.172 299.525 112.093C299.206 111.626 298.834 111.197 298.416 110.815C299.344 110.735 300.278 110.842 301.165 111.129C301.165 111.129 300.248 110.068 298.102 110.526L296.969 109.537C296.969 109.537 299.223 109.23 300.176 109.537C300.176 109.537 299.079 108.603 296.649 109.284L295.341 108.5C296.346 108.281 297.376 108.194 298.404 108.241C298.404 108.241 297.198 107.59 294.961 108.295L294.027 107.873C294.027 107.873 295.431 107.596 295.835 107.554C296.239 107.511 296.269 107.397 296.269 107.397C295.379 107.246 294.464 107.349 293.629 107.692C293.629 107.692 291.651 107.005 291.682 106.878Z" fill="#3F3D56"/>
<path d="M362.488 63.0078C362.488 63.0078 366.497 73.5821 358.545 74.6673C358.183 74.8504 357.771 74.9146 357.37 74.8508C356.968 74.7869 356.597 74.5983 356.309 74.3116C356.309 74.3116 356.863 74.1187 356.309 73.1059C356.123 72.7386 355.983 72.3498 355.893 71.9483C355.77 71.4129 355.825 70.8521 356.05 70.3508C356.05 70.3508 356.357 66.9325 360.939 64.2136C360.939 64.2136 361.747 63.0078 362.036 62.9536L361.825 65.0154C360.964 64.8994 360.091 65.1149 359.383 65.6183C359.383 65.6183 361.759 64.943 361.795 65.3108C361.795 65.3831 361.638 66.396 361.638 66.396C361.638 66.396 359.022 66.0403 357.611 67.3605C357.611 67.3605 360.33 66.1548 361.578 66.7577L361.228 68.2709C361.228 68.2709 358.479 67.7584 356.815 69.2053C356.815 69.2053 359.703 68.0659 361.126 68.6024L360.583 70.0433C360.583 70.0433 357.894 69.5972 356.52 70.8089C356.52 70.8089 359.986 69.8323 360.439 70.3688C360.203 70.9237 359.902 71.448 359.54 71.9303C359.54 71.9303 357.599 71.6529 356.863 72.4246C356.863 72.4246 359.275 72.0207 359.341 72.2679C358.728 73.0356 357.978 73.6835 357.129 74.179C358.068 73.8272 358.899 73.2371 359.54 72.4668C359.611 73.0885 359.498 73.7174 359.215 74.2754C359.215 74.2754 360.24 73.7871 359.818 72.1171C360.17 71.673 360.469 71.1895 360.71 70.6763C361.061 71.5371 361.235 72.4597 361.222 73.3892C361.222 73.3892 361.964 72.1835 360.867 70.2965L361.469 68.8617C361.469 68.8617 362.434 70.9174 362.392 71.9303C362.392 71.9303 362.958 70.604 361.584 68.4879L361.946 67.0109C362.455 67.9024 362.844 68.8571 363.103 69.8504C363.103 69.8504 363.368 68.506 362.03 66.5828L362.151 65.564C362.151 65.564 362.832 66.824 363.001 67.2038C363.169 67.5836 363.278 67.5715 363.278 67.5715C363.151 66.6847 362.782 65.8502 362.211 65.1601C362.239 64.4358 362.332 63.7155 362.488 63.0078Z" fill="#3F3D56"/>
<path d="M567.806 248.974C567.806 248.974 579.092 248.293 577.76 256.208C577.828 256.609 577.768 257.022 577.589 257.387C577.409 257.751 577.119 258.05 576.759 258.24C576.759 258.24 576.759 257.637 575.601 257.854C575.203 257.922 574.799 257.942 574.396 257.915C573.843 257.88 573.317 257.669 572.895 257.312C572.895 257.312 569.723 256.003 568.488 250.819C568.488 250.819 567.577 249.685 567.613 249.396L569.518 250.21C569.153 251 569.104 251.899 569.38 252.724C569.38 252.724 569.44 250.258 569.808 250.312C569.88 250.312 570.797 250.789 570.797 250.789C570.797 250.789 569.675 253.2 570.519 254.918C570.519 254.918 570.2 251.97 571.122 250.957L572.46 251.741C572.46 251.741 571.152 254.213 572.038 256.232C572.038 256.232 571.809 253.14 572.744 251.934L573.95 252.881C573.95 252.881 572.744 255.292 573.473 256.992C573.473 256.992 573.57 253.375 574.215 253.116C574.669 253.505 575.074 253.949 575.421 254.436C575.421 254.436 574.583 256.208 575.101 257.143C575.101 257.143 575.421 254.731 575.704 254.731C576.257 255.543 576.653 256.451 576.873 257.408C576.82 256.401 576.507 255.424 575.963 254.575C576.574 254.694 577.137 254.987 577.585 255.419C577.585 255.419 577.416 254.291 575.698 254.213C575.379 253.745 575.007 253.316 574.589 252.935C575.517 252.855 576.451 252.961 577.338 253.248C577.338 253.248 576.421 252.187 574.275 252.645L573.069 251.669C573.069 251.669 575.318 251.361 576.277 251.699C576.277 251.699 575.179 250.764 572.75 251.446L571.442 250.662C572.447 250.443 573.476 250.356 574.504 250.403C574.504 250.403 573.298 249.752 571.062 250.457L570.127 250.035C570.127 250.035 571.532 249.758 571.936 249.715C572.34 249.673 572.37 249.559 572.37 249.559C571.48 249.408 570.565 249.51 569.729 249.854C569.729 249.854 567.77 249.101 567.806 248.974Z" fill="#3F3D56"/>
<path d="M216.239 275.928C216.239 275.928 223.22 284.826 215.956 288.227C215.665 288.512 215.291 288.697 214.888 288.757C214.485 288.816 214.074 288.747 213.713 288.558C213.713 288.558 214.183 288.209 213.375 287.389C213.09 287.092 212.839 286.765 212.628 286.412C212.344 285.935 212.223 285.378 212.284 284.826C212.284 284.826 211.561 281.475 215.124 277.508C215.124 277.508 215.534 276.115 215.793 275.976L216.209 278.008C215.351 278.158 214.581 278.627 214.057 279.322C214.057 279.322 216.124 277.972 216.281 278.309C216.317 278.376 216.456 279.395 216.456 279.395C216.456 279.395 213.846 279.835 212.899 281.517C212.899 281.517 215.142 279.576 216.516 279.78L216.637 281.324C216.637 281.324 213.858 281.655 212.7 283.53C212.7 283.53 215.112 281.583 216.637 281.667L216.552 283.205C216.552 283.205 213.846 283.579 212.899 285.146C212.899 285.146 215.913 283.181 216.516 283.554C216.46 284.155 216.328 284.747 216.124 285.315C216.124 285.315 214.195 285.628 213.713 286.587C213.713 286.587 215.865 285.49 216.022 285.701C215.666 286.616 215.145 287.458 214.485 288.184C215.283 287.568 215.906 286.753 216.293 285.821C216.543 286.389 216.622 287.017 216.522 287.63C216.522 287.63 217.354 286.852 216.456 285.381C216.659 284.852 216.801 284.302 216.878 283.741C217.467 284.451 217.91 285.271 218.18 286.153C218.18 286.153 218.53 284.796 216.914 283.307L217.041 281.764C217.041 281.764 218.572 283.44 218.849 284.417C218.849 284.417 219 282.982 217.041 281.402L216.938 279.883C217.69 280.585 218.349 281.382 218.898 282.252C218.898 282.252 218.747 280.89 216.89 279.449L216.709 278.442C216.709 278.442 217.734 279.443 217.999 279.756C218.265 280.07 218.379 280.022 218.379 280.022C217.995 279.206 217.392 278.513 216.637 278.02C216.637 278.02 216.118 275.964 216.239 275.928Z" fill="#3F3D56"/>
<path d="M576.747 210.119C576.747 210.119 583.728 219.018 576.464 222.424C576.173 222.709 575.799 222.894 575.396 222.954C574.993 223.013 574.582 222.944 574.221 222.755C574.221 222.755 574.691 222.406 573.883 221.58C573.598 221.284 573.347 220.956 573.136 220.603C572.852 220.128 572.731 219.573 572.792 219.024C572.792 219.024 572.069 215.666 575.632 211.699C575.632 211.699 576.042 210.306 576.301 210.173L576.717 212.199C575.857 212.349 575.088 212.821 574.565 213.519C574.565 213.519 576.632 212.169 576.789 212.501C576.825 212.567 576.964 213.586 576.964 213.586C576.964 213.586 574.36 214.026 573.407 215.708C573.407 215.708 575.65 213.767 577.024 213.972L577.145 215.521C577.145 215.521 574.366 215.846 573.208 217.727C573.208 217.727 575.62 215.78 577.145 215.859L577.06 217.396C577.06 217.396 574.353 217.77 573.407 219.343C573.407 219.343 576.421 217.372 577.024 217.752C576.968 218.35 576.836 218.94 576.632 219.506C576.632 219.506 574.703 219.819 574.221 220.784C574.221 220.784 576.373 219.681 576.536 219.892C576.177 220.807 575.654 221.649 574.993 222.376C575.791 221.759 576.414 220.944 576.801 220.012C577.05 220.581 577.129 221.209 577.03 221.821C577.03 221.821 577.862 221.043 576.964 219.578C577.167 219.05 577.309 218.499 577.386 217.938C577.977 218.647 578.419 219.467 578.688 220.35C578.688 220.35 579.038 218.999 577.422 217.504L577.549 215.961C577.549 215.961 579.08 217.637 579.357 218.614C579.357 218.614 579.508 217.179 577.549 215.569L577.446 214.05C578.198 214.752 578.857 215.549 579.406 216.419C579.406 216.419 579.255 215.057 577.398 213.616L577.217 212.609C577.217 212.609 578.242 213.61 578.513 213.923C578.785 214.237 578.887 214.189 578.887 214.189C578.501 213.374 577.898 212.682 577.145 212.187C577.145 212.187 576.626 210.167 576.747 210.119Z" fill="#3F3D56"/>
<path d="M606.239 271.955C606.239 271.955 607.565 283.187 599.608 282.306C599.211 282.398 598.795 282.361 598.421 282.202C598.046 282.043 597.731 281.769 597.522 281.42C597.522 281.42 598.125 281.372 597.847 280.214C597.758 279.819 597.713 279.414 597.715 279.009C597.72 278.452 597.906 277.913 598.245 277.471C598.245 277.471 599.372 274.234 604.479 272.703C604.479 272.703 605.558 271.726 605.853 271.744L605.148 273.697C604.338 273.377 603.437 273.377 602.628 273.697C602.628 273.697 605.094 273.619 605.039 273.987C605.039 274.065 604.617 275.006 604.617 275.006C604.617 275.006 602.164 274.023 600.476 274.964C600.476 274.964 603.406 274.475 604.467 275.361L603.761 276.748C603.761 276.748 601.217 275.584 599.258 276.585C599.258 276.585 602.333 276.181 603.587 277.037L602.712 278.303C602.712 278.303 600.21 277.218 598.583 278.062C598.583 278.062 602.2 277.954 602.489 278.581C602.127 279.063 601.708 279.5 601.241 279.883C601.241 279.883 599.433 279.141 598.522 279.714C598.522 279.714 600.934 279.901 600.964 280.16C600.184 280.759 599.299 281.207 598.354 281.481C599.358 281.371 600.316 281.001 601.133 280.407C601.049 281.024 600.79 281.604 600.385 282.077C600.385 282.077 601.501 281.848 601.501 280.124C601.501 280.124 602.652 279.184 602.706 278.918C602.839 279.84 602.785 280.779 602.55 281.679C602.55 281.679 603.556 280.709 602.947 278.593L603.858 277.339C603.858 277.339 604.292 279.569 604.009 280.54C604.009 280.54 604.883 279.389 604.063 277.001L604.768 275.657C605.042 276.639 605.19 277.652 605.208 278.671C605.208 278.671 605.811 277.429 604.955 275.235L605.323 274.282C605.323 274.282 605.678 275.669 605.745 276.091C605.811 276.513 605.926 276.513 605.926 276.513C606.025 275.616 605.87 274.71 605.48 273.896C605.48 273.896 606.088 271.925 606.239 271.955Z" fill="#3F3D56"/>
<path d="M631.915 353.788C632.951 352.938 633.707 351.795 634.085 350.509C634.369 349.207 633.814 347.645 632.566 347.169C631.174 346.632 629.685 347.603 628.551 348.58C627.418 349.556 626.14 350.665 624.651 350.461C625.406 349.769 625.969 348.893 626.286 347.919C626.603 346.945 626.663 345.906 626.459 344.902C626.39 344.486 626.214 344.095 625.947 343.769C625.169 342.943 623.77 343.298 622.842 343.95C619.894 346.023 619.074 350.026 619.056 353.632C618.761 352.329 619.008 350.979 619.002 349.641C618.996 348.302 618.628 346.831 617.501 346.114C616.801 345.738 616.015 345.553 615.222 345.577C613.896 345.529 612.418 345.662 611.514 346.632C610.387 347.838 610.682 349.858 611.659 351.184C612.636 352.51 614.125 353.336 615.493 354.253C616.592 354.909 617.529 355.803 618.236 356.869C618.317 357.018 618.386 357.173 618.441 357.333H626.743C628.619 356.391 630.359 355.198 631.915 353.788Z" fill="#3F3D56"/>
<path d="M469.557 360.51C470.597 359.664 471.356 358.523 471.734 357.237C472.011 355.928 471.456 354.367 470.214 353.897C468.816 353.36 467.327 354.325 466.199 355.301C465.072 356.278 463.788 357.393 462.293 357.188C463.049 356.496 463.613 355.62 463.93 354.644C464.247 353.669 464.306 352.629 464.101 351.624C464.038 351.208 463.861 350.818 463.589 350.497C462.817 349.671 461.413 350.026 460.49 350.678C457.542 352.751 456.716 356.754 456.704 360.36C456.403 359.057 456.656 357.701 456.65 356.369C456.644 355.036 456.276 353.559 455.149 352.842C454.448 352.463 453.66 352.278 452.864 352.305C451.538 352.257 450.067 352.39 449.162 353.36C448.035 354.566 448.324 356.58 449.307 357.906C450.29 359.232 451.773 360.064 453.141 360.981C454.238 361.636 455.175 362.528 455.884 363.591C455.965 363.741 456.032 363.899 456.083 364.061H464.391C466.267 363.119 468.005 361.924 469.557 360.51Z" fill="#3F3D56"/>
<path d="M217 127.794C217 127.794 221.864 127.371 223.474 128.73C223.474 128.73 217.971 130.157 217.4 131.299C217.4 131.299 217.514 131.413 217.971 131.299C218.427 131.185 221.327 130.568 221.944 131.299L222.15 131.653L222.367 131.79L222.686 132.007C222.883 132.137 223.034 132.324 223.12 132.544C223.223 132.863 223.474 132.544 223.474 132.544C223.474 132.544 223.839 133.297 223.725 133.503C223.611 133.708 224.079 134.222 224.079 134.222V136.506L224.262 136.334C224.311 137.774 224.665 139.187 225.301 140.479C225.301 140.479 227.482 146.017 228.235 146.44H228.692C228.692 146.44 231.981 150.801 235.132 151.726C238.283 152.651 238.455 153.622 238.455 153.622L234.515 157.983C233.769 158.042 233.028 158.16 232.3 158.337C233.665 158.484 235.039 158.534 236.411 158.486L239.448 154.478C239.834 154.566 240.191 154.751 240.487 155.015C240.677 155.072 240.858 155.157 241.024 155.266C241.275 155.448 241.458 155.266 241.663 155.346C241.869 155.426 240.053 158.486 240.053 158.486H238.032L239.711 159.091C240.282 159.308 241.458 158.588 241.458 158.588L243.068 155.665L243.718 156.236V155.837C243.718 155.837 244.392 156.236 244.678 156.168C244.963 156.099 244.324 155.7 244.324 155.7C244.641 155.755 244.965 155.755 245.283 155.7C245.465 155.597 245.111 155.015 245.111 155.015V154.592C245.111 154.592 244.05 154.592 244.187 154.375C244.324 154.158 244.712 154.055 245.385 154.375C246.059 154.695 250.193 156.487 251.768 155.837C252.791 156.629 253.893 157.314 255.057 157.88C255.833 158.063 256.735 159.411 256.735 159.411C256.735 159.411 260.058 162.836 262.022 161.991C261.648 161.398 261.349 160.762 261.131 160.096C261.017 159.49 258.585 157.527 258.585 157.527C258.585 157.527 263.734 158.737 263.734 158.383C263.734 158.383 266.304 159.844 266.452 159.844C266.6 159.844 266.452 158.954 265.059 157.915L267 158.2C266.964 157.747 266.794 157.315 266.512 156.959C266.229 156.603 265.846 156.339 265.413 156.202C264.944 155.551 264.335 155.013 263.632 154.626L255.582 150.162C255.582 150.162 256.37 149.762 255.479 148.62C255.726 148.537 255.978 148.469 256.233 148.415C256.689 148.301 252.625 144.875 252.51 144.887C251.986 144.518 251.549 144.039 251.232 143.482C251.083 143.048 247.406 140.902 247.406 140.902C247.406 140.902 244.232 140.685 242.051 136.334C239.871 131.984 234.687 131.505 234.687 131.505C234.687 131.505 232.826 122.29 224.034 125.796C223.942 125.864 217.925 126.184 217 127.794Z" fill="#3F3D56"/>
<path opacity="0.1" d="M389.81 347.458C389.34 347.458 386.675 347.458 386.675 347.458L386.567 347.332C387.248 347.096 388.719 346.747 389.81 347.458Z" fill="black"/>
<path opacity="0.1" d="M397.43 347.458C396.96 347.458 394.295 347.458 394.295 347.458L394.187 347.332C394.868 347.096 396.339 346.747 397.43 347.458Z" fill="black"/>
<path opacity="0.1" d="M385.307 282.355C385.307 282.355 385.494 283.856 384.849 284.23C384.204 284.603 385.307 282.355 385.307 282.355Z" fill="black"/>
<path opacity="0.1" d="M388.665 280.594C388.665 280.594 386.392 280.739 386.38 281.065C386.368 281.39 388.665 280.594 388.665 280.594Z" fill="black"/>
<path d="M61.9836 77.76C62.3565 77.76 62.6588 77.4577 62.6588 77.0847C62.6588 76.7118 62.3565 76.4095 61.9836 76.4095C61.6106 76.4095 61.3083 76.7118 61.3083 77.0847C61.3083 77.4577 61.6106 77.76 61.9836 77.76Z" fill="white"/>
<path d="M134.123 62.7366C134.495 62.7366 134.798 62.4343 134.798 62.0613C134.798 61.6884 134.495 61.3861 134.123 61.3861C133.75 61.3861 133.447 61.6884 133.447 62.0613C133.447 62.4343 133.75 62.7366 134.123 62.7366Z" fill="white"/>
<path d="M460.135 63.6047C460.507 63.6047 460.81 63.3024 460.81 62.9295C460.81 62.5565 460.507 62.2542 460.135 62.2542C459.762 62.2542 459.459 62.5565 459.459 62.9295C459.459 63.3024 459.762 63.6047 460.135 63.6047Z" fill="white"/>
<path d="M61.9836 107.542C62.3565 107.542 62.6588 107.239 62.6588 106.866C62.6588 106.493 62.3565 106.191 61.9836 106.191C61.6106 106.191 61.3083 106.493 61.3083 106.866C61.3083 107.239 61.6106 107.542 61.9836 107.542Z" fill="white"/>
<path d="M481.759 87.0984C482.132 87.0984 482.435 86.7961 482.435 86.4232C482.435 86.0503 482.132 85.748 481.759 85.748C481.386 85.748 481.084 86.0503 481.084 86.4232C481.084 86.7961 481.386 87.0984 481.759 87.0984Z" fill="white"/>
<path d="M487.342 127.539C487.715 127.539 488.017 127.236 488.017 126.863C488.017 126.491 487.715 126.188 487.342 126.188C486.969 126.188 486.667 126.491 486.667 126.863C486.667 127.236 486.969 127.539 487.342 127.539Z" fill="white"/>
<path d="M621.811 80.491C622.184 80.491 622.486 80.1887 622.486 79.8158C622.486 79.4428 622.184 79.1405 621.811 79.1405C621.438 79.1405 621.136 79.4428 621.136 79.8158C621.136 80.1887 621.438 80.491 621.811 80.491Z" fill="white"/>
<path d="M215.805 49.7388C216.178 49.7388 216.48 49.4365 216.48 49.0635C216.48 48.6906 216.178 48.3883 215.805 48.3883C215.432 48.3883 215.13 48.6906 215.13 49.0635C215.13 49.4365 215.432 49.7388 215.805 49.7388Z" fill="white"/>
<path d="M536.144 56.6717C536.517 56.6717 536.819 56.3694 536.819 55.9965C536.819 55.6236 536.517 55.3213 536.144 55.3213C535.771 55.3213 535.469 55.6236 535.469 55.9965C535.469 56.3694 535.771 56.6717 536.144 56.6717Z" fill="white"/>
<path d="M471.806 169.739C472.179 169.739 472.481 169.437 472.481 169.064C472.481 168.691 472.179 168.389 471.806 168.389C471.433 168.389 471.131 168.691 471.131 169.064C471.131 169.437 471.433 169.739 471.806 169.739Z" fill="white"/>
<path d="M133.441 197.26C133.814 197.26 134.116 196.958 134.116 196.585C134.116 196.212 133.814 195.91 133.441 195.91C133.068 195.91 132.766 196.212 132.766 196.585C132.766 196.958 133.068 197.26 133.441 197.26Z" fill="white"/>
<path d="M481.084 176.57C481.457 176.57 481.759 176.267 481.759 175.895C481.759 175.522 481.457 175.219 481.084 175.219C480.711 175.219 480.409 175.522 480.409 175.895C480.409 176.267 480.711 176.57 481.084 176.57Z" fill="white"/>
<path d="M644.497 126.797C644.87 126.797 645.172 126.495 645.172 126.122C645.172 125.749 644.87 125.447 644.497 125.447C644.124 125.447 643.822 125.749 643.822 126.122C643.822 126.495 644.124 126.797 644.497 126.797Z" fill="white"/>
<path d="M191.341 100.94C191.713 100.94 192.016 100.638 192.016 100.265C192.016 99.8921 191.713 99.5898 191.341 99.5898C190.968 99.5898 190.665 99.8921 190.665 100.265C190.665 100.638 190.968 100.94 191.341 100.94Z" fill="white"/>
</svg>
